<?xml version="1.0" encoding="utf-8"?>
<!-- Generator: Adobe Illustrator 22.1.0, SVG Export Plug-In . SVG Version: 6.00 Build 0)  -->
<svg version="1.1" id="Слой_1" xmlns="http://www.w3.org/2000/svg" xmlns:xlink="http://www.w3.org/1999/xlink" x="0px" y="0px"
	 viewBox="0 0 249.5 208" style="enable-background:new 0 0 249.5 208;" xml:space="preserve">
<style type="text/css">
	.st0{fill:#FFFFFF;}
</style>
<path class="st0" d="M226.5,61.6c-1.2-5.1-2.1-10.9-4-15.9c-2-5.4-5.7-10.2-9-15c-3.8-5.6-7.6-11.4-13-15.8
	c-5.6-4.6-12.9-10.1-20.9-10.1c-3.1,0-5.8-0.9-8.7,0.6c-3.6,1.9-5.8,5.4-7.9,8.6c-0.8,1.2-3.9,8.3-5.3,8.6c0,0-12.3,3.1-14.9,5.2
	c-2.5,2.1-3.4,2.3-4.5,6.5c-1.1,4.1-5,41.9-5,41.9s-1.1,11.6-4.8,17.6c-3.6,5.9-7.9,9-12.3,11.4c-4.5,2.3-12.1,4.1-17.4,4.4
	c-5.3,0.3-16.8-2.1-21.3-2.3c-4.5-0.3-10.4-1-15.4,0.3s-5.9-0.8-17.4,5.2c-11.5,5.9-13.2,6.7-18.8,12.7S15,138.9,14.2,142.3
	c-0.8,3.4-0.6,11.6,0,17.6c0.6,5.9,1.1,11.9,3.9,15.8c2.8,3.9,5.3,7.2,11.2,11.1s16.5,8.8,21.9,9.8s17.4,5.2,28,5.4
	c10.7,0.3,27.2,1,36.7,0c9.5-1,20.5-2.8,29.9-5.7c9.4-2.8,11-3.4,21.4-9.3c10.4-5.9,18-10.9,27.5-21.7c9.5-10.9,12.6-14.2,19.4-28.2
	c6.7-14,10.4-16.8,12.3-35.7C228.5,82.6,229.3,73.5,226.5,61.6z M210.3,90.3c0,0-1.4,12.1-2.5,17.1c-1.1,4.9-5.6,17.1-11.2,26.9
	c-5.6,9.8-10.7,16-17.1,22.5c-6.5,6.5-9,8.8-16,13.2c-7,4.4-9.8,6.5-18.8,9.6c-9,3.1-11.2,4.1-17.4,5.2c-6.2,1-10.4,1.6-10.4,1.6
	s-8.7,0.3-10.7,0c-2-0.3-2.8-1.8-2.8-1.8s-0.6-2.3,0-4.7c0.6-2.3,3.1-1.8,3.1-1.8s12.1-0.5,19.9-1.6c7.9-1,10.4-2.8,18.2-6.2
	c7.9-3.4,10.1-4.7,17.4-9.8c7.3-5.2,9.3-8,13.7-12.7c4.5-4.7,6.7-7.8,10.1-13.2c3.4-5.4,8.1-15.5,10.7-23c2.5-7.5,4.5-18.6,5.6-23
	c1-4.1,5.2-3.1,8.1-1.3V90.3z"/>
</svg>
