<?xml version="1.0" encoding="utf-8"?>
<!-- Generator: Adobe Illustrator 22.1.0, SVG Export Plug-In . SVG Version: 6.00 Build 0)  -->
<svg version="1.1" id="Слой_1" xmlns="http://www.w3.org/2000/svg" xmlns:xlink="http://www.w3.org/1999/xlink" x="0px" y="0px"
	 viewBox="0 0 640 512" style="enable-background:new 0 0 640 512;" xml:space="preserve">
<style type="text/css">
	.st0{fill:#FFFFFF;}
</style>
<path class="st0" d="M579.1,78.9c10.3-8.4,11.8-23.5,3.4-33.7c-8.4-10.2-23.5-11.8-33.7-3.4l-96.6,78.5
	c-10.3,8.4-11.8,23.5-3.4,33.7c8.4,10.2,23.5,11.8,33.7,3.4L579,78.8L579.1,78.9z M382,45c-5.5-6.8-15.7-7.8-22.5-2.3L347,52.8
	c-41.1,33.5-47.3,94-13.8,135.1l9.3,11.4l-33.4,27.2c-0.6-27.5-10-55.1-28.7-78.1L270.3,136c-5.5-6.8-15.7-7.8-22.5-2.3l-12.4,10.1
	c-41.1,33.5-47.3,94-13.8,135.1l9.3,11.4l-33.4,27.2c-0.6-27.5-10-55.1-28.7-78.1L158.7,227c-5.5-6.8-15.7-7.8-22.5-2.3l-12.4,10.1
	c-41.1,33.5-47.3,94-13.8,135.1l9.3,11.4l-75.5,61.6C30.1,454,28,474.2,39.2,487.9c11.2,13.7,31.4,15.8,45.1,4.6l75.5-61.6
	l10.9,13.4c33.5,41.1,94,47.3,135.1,13.8l12.4-10.1c6.8-5.5,7.8-15.7,2.3-22.5l-10.1-12.4c-19.5-23.9-45.9-39-74-44.6l35-28.5
	c0,0,10.9,13.4,10.9,13.4c25,30.7,78.1,50.1,113.1,25.9c12.3-8.5,22-20.3,31.5-31.9c4-4.9,8.2-10.3,8.1-16.6
	c-0.1-15.4-22.9-28.7-35.4-34.5c-7.8-3.6-46.1-23.5-51.8-18.8c0,0,35-28.5,35-28.5s10.9,13.4,10.9,13.4
	c12.8,15.7,23.8,22.9,43.8,26.6c19.8,3.6,40.3,3.5,60-0.4c17.6-3.5,45.5-17.5,48.4-38.3c1-7.2-21.8-39.2-27.4-34.7
	c1.2-1,50.7-41.2,50.7-41.2c10.3-8.4,11.8-23.5,3.4-33.7c-8.4-10.2-23.5-11.8-33.7-3.4l-65.1,53.1c-20-6.5-41.4-7.9-62.2-4.2
	c8.2-20.6,11-42.9,8-64.8l63.8-52.1c10.3-8.4,11.8-23.5,3.4-33.7c-8.4-10.2-23.5-11.8-33.7-3.4l-50.4,40.9
	c-3.2-5.3-6.8-10.5-10.9-15.5L382,45z M680.2,417.9"/>
</svg>
