<?xml version="1.0" encoding="utf-8"?>

<svg version="1.1" id="Слой_1" xmlns="http://www.w3.org/2000/svg" xmlns:xlink="http://www.w3.org/1999/xlink" x="0px" y="0px"
	 viewBox="0 0 1200 600" style="enable-background:new 0 0 1200 600;" xml:space="preserve">
<style type="text/css">
	.st0{fill:#EB6668;}
	.st1{fill:#6CC0AE;}
	.st2{fill:#676767;}
	.st3{fill:#03689A;}
	.st4{fill:#B39AC9;}
	.st5{fill:#CCDD91;}
	.st6{fill:#FDCB39;}
</style>
<g>
	<path class="st0" d="M127.6,115.1l16.5-4.6c-2.4-8.7-6.6-16.2-12.5-22.3c-5.9-6.1-12.8-10.7-20.8-13.7c-2.4-0.9-4.9-1.7-7.3-2.2
		l-3.2,18.1C112.6,94.5,122.6,103.6,127.6,115.1z"/>
</g>
<g>
	<path class="st1" d="M36.8,132.1c0-10.9,4.2-20.9,11.1-28.7L35.6,91.3c-2.5,2.7-4.7,5.6-6.7,8.7c-5.9,9.3-8.9,19.5-8.9,30.6
		c0,10.9,2.8,21.1,8.6,30.5c5.7,9.4,13.5,17,23.2,22.7c5.2,3,10.5,5.2,16.2,6.6l2.6-15.5C51,169.3,36.8,152.2,36.8,132.1z"/>
</g>
<g>
	<path class="st2" d="M128.4,147.2c-6.5,17.2-23.9,29.6-44.4,29.6c-1.2,0-2.5-0.1-3.7-0.2L77.7,192c1.9,0.2,3.9,0.2,5.9,0.2
		c9.2,0,17.9-1.8,26.5-5.4s15.7-8.6,21.5-14.8c5.7-6.2,9.3-13,10.7-20.5L128.4,147.2z"/>
</g>
<g>
	<path class="st3" d="M84,87.5c2.2,0,4.5,0.2,6.7,0.4l3.1-17.6c-2.6-0.2-5.2-0.4-7.8-0.4C74,69.9,63,72.6,53,78.1
		c-3.6,1.9-6.9,4.1-10,6.6l12.3,12.1C63.2,90.9,73.2,87.5,84,87.5z"/>
</g>
<g>
	<path class="st4" d="M80.4,173l-0.9-13c-1.2-0.2-2.3-0.3-3.6-0.7c-5-1.2-9.4-3.7-13.2-7.7c-3.7-3.8-6.4-8.7-7.8-14.9
		c-1.5-6.2-1.3-11.7,0.3-16.7L45.1,114c-4.5,8.3-6,18.2-3.7,27.7C45.7,159.8,61.9,172,80.4,173z"/>
	<path class="st5" d="M90.3,90.8l0.6,10.2c2.2,0.2,4.2,0.8,6.3,1.6c5.9,2.2,10.2,5.3,12.9,9.3l9.2-5.1C112.5,98,102,92.3,90.3,90.8z
		"/>
	<path class="st6" d="M74.5,91.8c-9.6,2.2-17.7,7.3-23.6,14.1l9.7,5.8c4.4-4.8,10.2-8.2,17.7-9.9c1-0.2,1.9-0.4,2.8-0.6l-0.7-10.4
		C78.5,91,76.5,91.3,74.5,91.8z"/>
</g>
<g>
	<path class="st2" d="M91.7,132.7l2.8,0.7c-0.6,2.2-1.7,4-3.2,5.2c-1.6,1.2-3.5,1.8-5.7,1.8c-2.3,0-4.2-0.5-5.7-1.4
		c-1.4-0.9-2.6-2.2-3.3-4s-1.2-3.6-1.2-5.7c0-2.2,0.4-4.1,1.2-5.7s2.1-2.9,3.6-3.7c1.5-0.8,3.3-1.2,5.2-1.2c2.2,0,4,0.6,5.4,1.7
		c1.5,1.1,2.5,2.6,3.1,4.5l-2.7,0.7c-0.5-1.6-1.2-2.6-2.2-3.3c-0.9-0.7-2.2-1.1-3.6-1.1c-1.7,0-3.1,0.3-4.1,1.2
		c-1.1,0.7-1.9,1.8-2.3,3.1c-0.4,1.2-0.7,2.7-0.7,4c0,1.7,0.2,3.3,0.7,4.7c0.6,1.3,1.3,2.3,2.5,3c1.2,0.7,2.3,1,3.6,1
		c1.6,0,2.9-0.4,4-1.3C90.7,135.8,91.4,134.5,91.7,132.7z"/>
	<path class="st2" d="M97.8,140.1v-15.3h2.3v2.3c0.7-1.1,1.2-1.7,1.7-2.2c0.5-0.3,1.1-0.5,1.7-0.5c0.9,0,1.7,0.2,2.7,0.8l-0.9,2.4
		c-0.7-0.3-1.2-0.6-1.9-0.6c-0.6,0-1.1,0.2-1.6,0.5c-0.4,0.3-0.7,0.7-1,1.4c-0.2,0.9-0.4,1.9-0.4,3.1v8H97.8L97.8,140.1z"/>
	<path class="st2" d="M107.6,146.1l-0.2-2.4c0.6,0.2,1.1,0.2,1.5,0.2c0.6,0,1.1-0.1,1.4-0.2c0.3-0.2,0.7-0.5,0.8-0.7
		c0.2-0.2,0.4-0.9,0.7-1.9c0.1-0.2,0.2-0.3,0.2-0.7l-5.9-15.3h2.8l3.2,8.8c0.4,1.2,0.7,2.3,1.2,3.6c0.2-1.2,0.7-2.3,1.1-3.5l3.3-8.9
		h2.6l-5.9,15.6c-0.7,1.7-1.2,2.8-1.5,3.5c-0.5,0.8-1,1.5-1.7,1.9c-0.7,0.4-1.3,0.6-2.2,0.6C108.8,146.3,108.3,146.2,107.6,146.1z"
		/>
	<path class="st2" d="M122.8,146v-21.2h2.4v2c0.6-0.7,1.2-1.3,1.9-1.7c0.7-0.3,1.6-0.6,2.6-0.6c1.3,0,2.5,0.3,3.6,1
		c1,0.7,1.7,1.7,2.2,2.8c0.5,1.2,0.7,2.6,0.7,4c0,1.6-0.2,3-0.8,4.2c-0.6,1.2-1.4,2.2-2.5,2.9c-1.1,0.7-2.2,1-3.4,1
		c-0.8,0-1.7-0.2-2.3-0.6c-0.7-0.3-1.2-0.8-1.7-1.4v7.4L122.8,146L122.8,146z M125.1,132.6c0,2,0.4,3.4,1.2,4.4
		c0.7,0.9,1.7,1.4,3,1.4c1.2,0,2.2-0.5,3-1.5c0.8-1,1.2-2.5,1.2-4.5c0-2-0.4-3.4-1.2-4.4c-0.7-1-1.7-1.5-2.9-1.5s-2.2,0.5-3,1.6
		C125.6,129.2,125.1,130.6,125.1,132.6z"/>
	<path class="st2" d="M145.2,137.8l0.3,2.2c-0.7,0.2-1.4,0.2-2,0.2c-1,0-1.7-0.2-2.2-0.4s-0.9-0.7-1.2-1.2c-0.2-0.5-0.3-1.5-0.3-3.1
		v-8.7H138v-2h1.9v-3.7l2.6-1.6v5.3h2.6v2h-2.6v8.9c0,0.7,0.1,1.2,0.2,1.4s0.2,0.3,0.4,0.5c0.2,0.2,0.5,0.2,0.9,0.2
		C144.3,137.9,144.7,137.9,145.2,137.8z"/>
	<path class="st2" d="M146.8,132.5c0-2.8,0.7-5,2.4-6.3c1.3-1.2,3-1.7,4.9-1.7c2.2,0,3.9,0.7,5.2,2.1c1.3,1.3,2.1,3.2,2.1,5.7
		c0,2-0.2,3.6-0.9,4.7c-0.6,1.2-1.5,2-2.6,2.6c-1.2,0.7-2.4,0.9-3.7,0.9c-2.2,0-4-0.7-5.2-2.1C147.5,137.1,146.8,135.1,146.8,132.5z
		 M149.5,132.5c0,2,0.4,3.4,1.2,4.4c0.8,1,2,1.5,3.2,1.5s2.4-0.5,3.2-1.5c0.8-1,1.2-2.5,1.2-4.5c0-1.9-0.4-3.3-1.2-4.3
		c-0.8-1-2-1.5-3.2-1.5c-1.3,0-2.4,0.5-3.2,1.5C149.9,129.1,149.5,130.6,149.5,132.5z"/>
	<path class="st2" d="M164.5,140.1v-15.3h2.3v2.2c1.2-1.7,2.7-2.6,5-2.6c0.9,0,1.7,0.2,2.6,0.5c0.7,0.3,1.3,0.7,1.7,1.2
		c0.4,0.6,0.7,1.2,0.8,1.9c0.1,0.5,0.2,1.3,0.2,2.6v9.5h-2.6v-9.2c0-1.1-0.1-1.8-0.2-2.3c-0.2-0.5-0.6-0.9-1.1-1.2
		c-0.5-0.2-1.2-0.5-1.8-0.5c-1.2,0-2.2,0.3-2.9,1.1c-0.8,0.7-1.2,2.1-1.2,4v8.3L164.5,140.1L164.5,140.1z"/>
	<path class="st2" d="M181.1,122v-3h2.6v3H181.1z M181.1,140.1v-15.3h2.6v15.3H181.1z"/>
	<path class="st2" d="M193.5,137.8l0.3,2.2c-0.7,0.2-1.4,0.2-2,0.2c-1,0-1.7-0.2-2.2-0.4s-0.9-0.7-1.2-1.2c-0.2-0.5-0.3-1.5-0.3-3.1
		v-8.7h-1.9v-2h1.9v-3.7l2.6-1.6v5.3h2.6v2h-2.6v8.9c0,0.7,0.1,1.2,0.2,1.4c0.1,0.2,0.2,0.3,0.4,0.5c0.2,0.2,0.5,0.2,0.9,0.2
		C192.6,137.9,193,137.9,193.5,137.8z"/>
	<path class="st2" d="M206.8,135.2l2.7,0.3c-0.4,1.6-1.2,2.7-2.4,3.6c-1.2,0.8-2.6,1.2-4.5,1.2c-2.2,0-4.1-0.7-5.4-2.1
		c-1.3-1.3-2-3.3-2-5.8c0-2.6,0.7-4.6,2.1-6c1.3-1.4,3.1-2.2,5.2-2.2c2.1,0,3.7,0.7,5.1,2.1c1.3,1.4,2,3.3,2,5.9c0,0.2,0,0.3,0,0.7
		H198c0.1,1.7,0.6,3,1.4,3.8c0.8,0.9,2,1.3,3.2,1.3c1,0,1.7-0.2,2.5-0.7C205.8,137.2,206.3,136.2,206.8,135.2z M198.1,131.1h8.7
		c-0.2-1.2-0.4-2.2-1-2.9c-0.8-1-1.9-1.5-3.2-1.5c-1.2,0-2.2,0.4-3.1,1.2C198.7,128.7,198.2,129.7,198.1,131.1z"/>
</g>
</svg>
