<?xml version="1.0" encoding="utf-8"?>
<!-- Generator: Adobe Illustrator 22.1.0, SVG Export Plug-In . SVG Version: 6.00 Build 0)  -->
<svg version="1.1" id="Слой_1" xmlns="http://www.w3.org/2000/svg" xmlns:xlink="http://www.w3.org/1999/xlink" x="0px" y="0px"
	 viewBox="0 0 1200 600" style="enable-background:new 0 0 1200 600;" xml:space="preserve">
<style type="text/css">
	.st0{fill:#336666;}
</style>
<g>
	<rect x="292" y="448.6" class="st0" width="29" height="118.4"/>
	<rect x="325.4" y="423" class="st0" width="29" height="144"/>
	<rect x="358.9" y="499.1" class="st0" width="29" height="67.9"/>
	<rect x="392.3" y="391" class="st0" width="29" height="176"/>
	<rect x="425.7" y="484" class="st0" width="29" height="83"/>
	<rect x="459.1" y="375.9" class="st0" width="29" height="191.1"/>
	<rect x="492.6" y="423" class="st0" width="29" height="144"/>
	<rect x="526" y="391" class="st0" width="29" height="176"/>
	<rect x="559.4" y="484" class="st0" width="29" height="83"/>
	<rect x="592.8" y="339" class="st0" width="29" height="228"/>
	<rect x="626.3" y="484" class="st0" width="29" height="83"/>
	<rect x="659.7" y="233" class="st0" width="29" height="334"/>
	<rect x="693.1" y="282" class="st0" width="29" height="285"/>
	<rect x="726.5" y="423" class="st0" width="29" height="144"/>
	<rect x="760" y="391" class="st0" width="29" height="176"/>
	<rect x="793.4" y="484" class="st0" width="29" height="83"/>
	<rect x="826.8" y="391" class="st0" width="29" height="176"/>
	<rect x="860.2" y="245" class="st0" width="29" height="322"/>
	<rect x="893.7" y="391" class="st0" width="29" height="176"/>
	<rect x="927.1" y="423" class="st0" width="29" height="144"/>
	<rect x="960.5" y="391" class="st0" width="29" height="176"/>
	<rect x="993.9" y="484" class="st0" width="29" height="83"/>
	<rect x="1027.4" y="423" class="st0" width="29" height="144"/>
	<rect x="1060.8" y="391" class="st0" width="29" height="176"/>
	<rect x="1094.2" y="484" class="st0" width="29" height="83"/>
</g>
</svg>
