<?xml version="1.0" encoding="utf-8"?>

<svg version="1.1" id="Слой_1" xmlns="http://www.w3.org/2000/svg" xmlns:xlink="http://www.w3.org/1999/xlink" x="0px" y="0px"
	 viewBox="0 0 1200 600" style="enable-background:new 0 0 1200 600;" xml:space="preserve">
<style type="text/css">
	.st0{fill:#336666;}
	.st1{fill:#006699;}
</style>
<rect x="1037.8" y="196" class="st0" width="29" height="371"/>
<rect x="1004.3" y="301.7" class="st0" width="29" height="265.3"/>
<rect x="937.5" y="410.1" class="st0" width="29" height="156.9"/>
<rect x="904.1" y="248.2" class="st0" width="29" height="318.8"/>
<rect x="870.6" y="326.8" class="st0" width="29" height="240.2"/>
<rect x="837.2" y="183" class="st0" width="29" height="384"/>
<rect x="770.4" y="219.2" class="st0" width="29" height="347.8"/>
<rect x="736.9" y="428.5" class="st0" width="29" height="138.5"/>
<rect x="703.5" y="202.9" class="st0" width="29" height="364.1"/>
<rect x="636.7" y="326.8" class="st0" width="29" height="240.2"/>
<rect x="603.2" y="160.3" class="st0" width="29" height="406.7"/>
<rect x="569.8" y="428.5" class="st0" width="29" height="138.5"/>
<rect x="503" y="216" class="st0" width="29" height="351"/>
<rect x="469.5" y="273.4" class="st0" width="29" height="293.6"/>
<rect x="402.7" y="190.2" class="st0" width="29" height="376.8"/>
<rect x="369.3" y="428.5" class="st0" width="29" height="138.5"/>
<rect x="302.4" y="308" class="st0" width="29" height="259"/>
<rect x="269" y="428.5" class="st0" width="29" height="138.5"/>
<rect x="1071.2" y="262" class="st1" width="29" height="305"/>
<rect x="970.9" y="179" class="st1" width="29" height="388"/>
<rect x="803.8" y="407.6" class="st1" width="29" height="159.4"/>
<rect x="670.1" y="256.3" class="st1" width="29" height="310.7"/>
<rect x="536.4" y="273.4" class="st1" width="29" height="293.6"/>
<rect x="436.1" y="326.8" class="st1" width="29" height="240.2"/>
<rect x="335.8" y="337" class="st1" width="29" height="230"/>
</svg>
