<?xml version="1.0" encoding="utf-8"?>

<svg version="1.1" id="Слой_1" xmlns="http://www.w3.org/2000/svg" xmlns:xlink="http://www.w3.org/1999/xlink" x="0px" y="0px"
	 viewBox="0 0 1200 600" style="enable-background:new 0 0 1200 600;" xml:space="preserve">
<style type="text/css">
	.st0{fill:#00679A;}
</style>
<polygon class="st0" points="89.3,504.2 18.9,460.7 21.1,457.3 89.7,499.6 163.7,467.5 190.7,324.5 203.3,350.9 335.9,258.9 
	451.8,258.9 466.2,169 509.4,370.3 520.3,350.9 601.5,351.9 601.5,288.1 665.6,351.1 804.7,224.9 938.4,225.9 955.9,200.4 
	960.1,236.4 981.3,146.5 995.2,156.9 1055.3,155.9 1085.2,102.4 1105.2,126.4 1126.8,87.9 1130.2,89.9 1105.8,133.4 1085.8,109.4 
	1057.7,159.9 993.8,160.9 983.7,153.3 958.9,259.4 953.1,211.4 940.6,229.9 806.3,228.9 665.4,356.7 605.5,297.7 605.5,355.9 
	522.7,354.9 507.6,381.5 466.8,190.8 455.2,262.9 337.1,262.9 201.7,356.9 192.3,337.3 167.3,470.3 "/>
</svg>
