<?xml version="1.0" encoding="utf-8"?>

<svg version="1.1" id="Слой_1" xmlns="http://www.w3.org/2000/svg" xmlns:xlink="http://www.w3.org/1999/xlink" x="0px" y="0px"
	 viewBox="0 0 1200 600" style="enable-background:new 0 0 1200 600;" xml:space="preserve">
<style type="text/css">
	.st0{fill:#6CC4C7;}
</style>
<polygon class="st0" points="76.9,473.2 19,439.7 21,436.3 77.1,468.8 148.2,436.6 178.9,264.6 236.6,356.2 408.1,235.9 424,123.7 
	511.5,327.2 528.1,307 588,307 588,254.7 667.9,321.3 876,126.4 876,160.9 951.9,78.2 984.8,109 1045.9,108 1076.8,60.6 
	1097.1,85.8 1117.5,62.7 1120.5,65.3 1096.9,92 1077.2,67.4 1048.1,112 983.2,113 952.1,83.8 872,171.1 872,135.6 668.1,326.7 
	592,263.3 592,311 529.9,311 510.5,334.8 426,138.3 411.9,238.1 411.1,238.6 235.4,361.8 181.1,275.4 151.8,439.4 "/>
</svg>
