<?xml version="1.0" encoding="utf-8"?>

<svg version="1.1" id="Слой_1" xmlns="http://www.w3.org/2000/svg" xmlns:xlink="http://www.w3.org/1999/xlink" x="0px" y="0px"
	 viewBox="0 0 292 188" style="enable-background:new 0 0 292 188;" xml:space="preserve">
<style type="text/css">
	.st0{fill:#EB6568;}
	.st1{fill:#6BBFAD;}
	.st2{fill:#666666;}
	.st3{fill:#006799;}
	.st4{fill:#B399C8;}
	.st5{fill:#CBDC90;}
	.st6{fill:#FDCB37;}
</style>
<g>
	<path class="st0" d="M120.2,60.1l16.4-4.6c-2.4-8.7-6.6-16.1-12.4-22.2c-5.8-6.1-12.8-10.6-20.7-13.6c-2.4-0.9-4.9-1.6-7.3-2.3
		l-3.2,18C105.3,39.6,115.2,48.7,120.2,60.1z"/>
</g>
<g>
	<path class="st1" d="M29.9,77c0-10.9,4.2-20.8,11-28.5l-12.3-12c-2.5,2.7-4.7,5.6-6.6,8.7c-5.8,9.2-8.8,19.3-8.8,30.4
		c0,10.9,2.8,20.9,8.5,30.4c5.7,9.4,13.4,16.9,23,22.6c5.1,3,10.4,5.1,16.1,6.6l2.5-15.4C44,114,29.9,97,29.9,77z"/>
</g>
<g>
	<path class="st2" d="M121,91.9c-6.5,17.1-23.8,29.4-44.2,29.4c-1.3,0-2.5-0.1-3.7-0.1l-2.5,15.4c1.9,0.1,3.9,0.3,5.8,0.3
		c9.1,0,17.8-1.8,26.4-5.4s15.6-8.5,21.4-14.7c5.7-6.2,9.3-13,10.6-20.4L121,91.9z"/>
</g>
<g>
	<path class="st3" d="M76.8,32.6c2.3,0,4.4,0.1,6.6,0.4l3.1-17.5c-2.6-0.3-5.2-0.4-7.8-0.4c-11.8,0-22.8,2.7-32.8,8.1
		c-3.6,1.9-6.9,4.1-9.9,6.6l12.3,12.1C56.1,36,66,32.6,76.8,32.6z"/>
</g>
<g>
	<path class="st4" d="M73.3,117.6l-0.9-13c-1.2-0.1-2.3-0.4-3.5-0.6c-5-1.3-9.4-3.7-13.1-7.6c-3.7-3.8-6.3-8.7-7.8-14.8
		c-1.5-6.2-1.3-11.7,0.4-16.6L38.3,59c-4.4,8.3-6,18-3.7,27.6C38.7,104.5,54.9,116.7,73.3,117.6z"/>
	<path class="st5" d="M83.1,36l0.6,10.1c2.1,0.3,4.2,0.8,6.3,1.6c5.8,2.2,10.1,5.3,12.8,9.3l9.2-5.1C105.1,43.1,94.7,37.3,83.1,36z"
		/>
	<path class="st6" d="M67.4,36.9c-9.5,2.3-17.6,7.3-23.5,14l9.6,5.8c4.4-4.8,10.2-8.1,17.6-9.9c1-0.2,1.9-0.4,2.8-0.6l-0.6-10.4
		C71.3,36.1,69.3,36.4,67.4,36.9z"/>
</g>
</svg>
