<?xml version="1.0" encoding="utf-8"?>
<!-- Generator: Adobe Illustrator 22.1.0, SVG Export Plug-In . SVG Version: 6.00 Build 0)  -->
<svg version="1.1" id="Слой_1" xmlns="http://www.w3.org/2000/svg" xmlns:xlink="http://www.w3.org/1999/xlink" x="0px" y="0px"
	 viewBox="0 0 1200 600" style="enable-background:new 0 0 1200 600;" xml:space="preserve">
<style type="text/css">
	.st0{fill:#EB6568;}
	.st1{fill:#6BBFAD;}
	.st2{fill:#666666;}
	.st3{fill:#006799;}
	.st4{fill:#B399C8;}
	.st5{fill:#CBDC90;}
	.st6{fill:#FDCB37;}
</style>
<g>
	<path class="st0" d="M201.7,95.3l23.3-6.5c-3.4-12.4-9.3-22.9-17.6-31.5S189.3,42.2,178,38c-3.4-1.3-6.9-2.3-10.4-3.2l-4.5,25.5
		C180.6,66.2,194.6,79.1,201.7,95.3z"/>
</g>
<g>
	<path class="st1" d="M73.5,119.3c0-15.4,5.9-29.5,15.6-40.4l-17.4-17c-3.5,3.8-6.6,7.9-9.4,12.3c-8.3,13.1-12.5,27.4-12.5,43.1
		c0,15.4,4,29.7,12.1,43.1c8.1,13.3,19,24,32.7,32c7.3,4.2,14.8,7.3,22.8,9.3l3.6-21.9C93.6,171.8,73.5,147.7,73.5,119.3z"/>
</g>
<g>
	<path class="st2" d="M202.8,140.5c-9.2,24.3-33.8,41.7-62.7,41.7c-1.8,0-3.5-0.1-5.3-0.2l-3.6,21.8c2.7,0.2,5.5,0.4,8.3,0.4
		c12.9,0,25.3-2.6,37.4-7.7c12.1-5.1,22.1-12.1,30.3-20.9c8.1-8.8,13.2-18.4,15.1-28.9L202.8,140.5z"/>
</g>
<g>
	<path class="st3" d="M140.1,56.3c3.2,0,6.3,0.2,9.4,0.6l4.4-24.8c-3.7-0.4-7.4-0.6-11.1-0.6c-16.8,0-32.3,3.8-46.5,11.5
		c-5.1,2.7-9.8,5.8-14.1,9.3l17.5,17.1C110.7,61.2,124.8,56.3,140.1,56.3z"/>
</g>
<g>
	<path class="st4" d="M135.1,177l-1.3-18.4c-1.7-0.2-3.3-0.5-5-0.9c-7.1-1.8-13.3-5.3-18.6-10.8c-5.3-5.4-9-12.4-11-21
		c-2.1-8.8-1.9-16.6,0.5-23.5l-14.3-8.6c-6.3,11.8-8.5,25.6-5.2,39.2C86.1,158.4,109,175.6,135.1,177z"/>
	<path class="st5" d="M149.1,61.1l0.8,14.4c3,0.4,6,1.2,8.9,2.2c8.3,3.1,14.3,7.5,18.2,13.2l13-7.2C180.3,71.2,165.5,63,149.1,61.1z
		"/>
	<path class="st6" d="M126.7,62.4c-13.5,3.2-25,10.4-33.3,19.9l13.6,8.2c6.2-6.8,14.5-11.5,25-14c1.4-0.3,2.7-0.6,4-0.8L135.1,61
		C132.3,61.3,129.5,61.7,126.7,62.4z"/>
</g>
<g>
	<path class="st2" d="M151.1,120.2l4,1c-0.8,3.2-2.4,5.7-4.5,7.4c-2.2,1.7-4.9,2.6-8,2.6c-3.3,0-5.9-0.7-8-2c-2-1.3-3.6-3.2-4.7-5.7
		c-1.1-2.5-1.6-5.1-1.6-8c0-3.1,0.6-5.8,1.8-8.1s2.9-4.1,5.1-5.3c2.2-1.2,4.7-1.8,7.3-1.8c3,0,5.6,0.8,7.6,2.3
		c2.1,1.5,3.5,3.7,4.3,6.4l-3.9,0.9c-0.7-2.2-1.7-3.7-3.1-4.7c-1.3-1-3-1.5-5-1.5c-2.3,0-4.3,0.5-5.8,1.6s-2.7,2.6-3.3,4.4
		s-1,3.8-1,5.7c0,2.5,0.4,4.7,1.1,6.6c0.8,1.9,1.9,3.3,3.5,4.2c1.6,0.9,3.3,1.4,5.1,1.4c2.2,0,4.1-0.6,5.7-1.9
		C149.5,124.6,150.6,122.7,151.1,120.2z"/>
	<path class="st2" d="M159.6,130.6V109h3.3v3.3c0.9-1.5,1.6-2.5,2.4-3c0.7-0.5,1.5-0.7,2.4-0.7c1.3,0,2.5,0.4,3.8,1.2l-1.3,3.4
		c-0.9-0.5-1.8-0.8-2.7-0.8c-0.8,0-1.5,0.2-2.2,0.7c-0.6,0.5-1.1,1.1-1.4,2c-0.4,1.3-0.6,2.7-0.6,4.3v11.3L159.6,130.6L159.6,130.6z
		"/>
	<path class="st2" d="M173.5,139l-0.4-3.4c0.8,0.2,1.5,0.3,2.1,0.3c0.8,0,1.5-0.1,2-0.4c0.5-0.3,0.9-0.7,1.2-1.1
		c0.2-0.4,0.6-1.3,1.1-2.7c0.1-0.2,0.2-0.5,0.3-0.9l-8.3-21.6h4l4.6,12.5c0.6,1.6,1.1,3.3,1.6,5c0.4-1.7,0.9-3.3,1.5-4.9l4.7-12.6
		h3.7l-8.3,22c-0.9,2.4-1.6,4-2.1,4.9c-0.7,1.2-1.4,2.1-2.3,2.7c-0.9,0.6-1.9,0.8-3.1,0.8C175.2,139.4,174.4,139.3,173.5,139z"/>
	<path class="st2" d="M194.9,138.9V109h3.4v2.8c0.8-1.1,1.7-1.9,2.7-2.5c1-0.5,2.2-0.8,3.7-0.8c1.9,0,3.5,0.5,5,1.4
		c1.4,0.9,2.5,2.3,3.2,4s1.1,3.6,1.1,5.7c0,2.2-0.4,4.2-1.2,6s-2,3.1-3.5,4.1c-1.5,0.9-3.2,1.4-4.8,1.4c-1.2,0-2.4-0.3-3.3-0.8
		s-1.8-1.2-2.4-2v10.5h-3.9V138.9z M198.2,120c0,2.8,0.6,4.8,1.7,6.2c1.1,1.3,2.5,2,4.2,2s3.1-0.7,4.2-2.1c1.2-1.4,1.8-3.5,1.8-6.4
		c0-2.8-0.6-4.8-1.7-6.2s-2.5-2.1-4.1-2.1s-3,0.7-4.2,2.2C198.8,115.1,198.2,117.2,198.2,120z"/>
	<path class="st2" d="M226.5,127.4l0.5,3.2c-1,0.2-2,0.3-2.8,0.3c-1.4,0-2.4-0.2-3.1-0.6c-0.7-0.4-1.3-1-1.6-1.7s-0.5-2.1-0.5-4.3
		v-12.4h-2.7v-2.8h2.7v-5.3l3.7-2.2v7.5h3.7v2.8h-3.7v12.6c0,1,0.1,1.7,0.2,2c0.1,0.3,0.3,0.5,0.6,0.7s0.7,0.3,1.3,0.3
		C225.3,127.5,225.8,127.5,226.5,127.4z"/>
	<path class="st2" d="M228.8,119.8c0-4,1.1-7,3.4-8.9c1.9-1.6,4.2-2.4,6.9-2.4c3,0,5.5,1,7.4,2.9s2.9,4.6,2.9,8.1
		c0,2.8-0.4,5-1.3,6.6c-0.8,1.6-2.1,2.8-3.7,3.7c-1.6,0.9-3.4,1.3-5.3,1.3c-3.1,0-5.6-1-7.4-2.9
		C229.7,126.3,228.8,123.5,228.8,119.8z M232.6,119.8c0,2.8,0.6,4.8,1.8,6.2c1.2,1.4,2.8,2.1,4.6,2.1s3.4-0.7,4.6-2.1
		s1.8-3.5,1.8-6.3c0-2.7-0.6-4.7-1.8-6.1s-2.8-2.1-4.6-2.1c-1.9,0-3.4,0.7-4.6,2.1S232.6,117.1,232.6,119.8z"/>
	<path class="st2" d="M253.7,130.6V109h3.3v3.1c1.6-2.4,3.9-3.6,7-3.6c1.3,0,2.5,0.2,3.6,0.7s1.9,1.1,2.5,1.8
		c0.6,0.8,0.9,1.7,1.2,2.7c0.1,0.7,0.2,1.9,0.2,3.6v13.3h-3.7v-13.1c0-1.5-0.1-2.6-0.4-3.3c-0.3-0.7-0.8-1.3-1.5-1.8
		c-0.7-0.4-1.6-0.7-2.6-0.7c-1.6,0-3,0.5-4.1,1.5c-1.2,1-1.7,2.9-1.7,5.6v11.8L253.7,130.6L253.7,130.6z"/>
	<path class="st2" d="M277.2,105v-4.2h3.7v4.2H277.2z M277.2,130.6V109h3.7v21.6H277.2z"/>
	<path class="st2" d="M294.8,127.4l0.5,3.2c-1,0.2-2,0.3-2.8,0.3c-1.4,0-2.4-0.2-3.1-0.6c-0.7-0.4-1.3-1-1.6-1.7
		c-0.3-0.7-0.5-2.1-0.5-4.3v-12.4h-2.7v-2.8h2.7v-5.3l3.7-2.2v7.5h3.7v2.8H291v12.6c0,1,0.1,1.7,0.2,2s0.3,0.5,0.6,0.7
		c0.3,0.2,0.7,0.3,1.3,0.3C293.5,127.5,294.1,127.5,294.8,127.4z"/>
	<path class="st2" d="M313.4,123.7l3.8,0.5c-0.6,2.2-1.7,3.9-3.4,5.1c-1.6,1.2-3.7,1.8-6.3,1.8c-3.2,0-5.8-1-7.6-2.9
		c-1.9-1.9-2.8-4.7-2.8-8.2c0-3.6,1-6.5,2.9-8.5s4.4-3,7.4-3c2.9,0,5.3,1,7.2,2.9c1.9,2,2.8,4.7,2.8,8.3c0,0.2,0,0.5,0,1H301
		c0.1,2.4,0.8,4.2,2,5.4c1.2,1.3,2.8,1.9,4.6,1.9c1.4,0,2.5-0.4,3.5-1.1C312.1,126.4,312.8,125.2,313.4,123.7z M301.2,117.8h12.3
		c-0.2-1.8-0.6-3.2-1.4-4.1c-1.2-1.4-2.7-2.1-4.6-2.1c-1.7,0-3.1,0.6-4.3,1.7S301.3,115.9,301.2,117.8z"/>
</g>
</svg>
