<?xml version="1.0" encoding="utf-8"?>
<!-- Generator: Adobe Illustrator 22.1.0, SVG Export Plug-In . SVG Version: 6.00 Build 0)  -->
<svg version="1.1" id="Слой_1" xmlns="http://www.w3.org/2000/svg" xmlns:xlink="http://www.w3.org/1999/xlink" x="0px" y="0px"
	 viewBox="0 0 1200 600" style="enable-background:new 0 0 1200 600;" xml:space="preserve">
<style type="text/css">
	.st0{fill:none;}
	.st1{fill:none;stroke:#000000;stroke-width:0.3;stroke-linejoin:round;}
	.st2{fill:url(#Diagonal_Lines);stroke:#000000;stroke-miterlimit:10;}
</style>
<pattern  width="72" height="72" patternUnits="userSpaceOnUse" id="Diagonal_Lines" viewBox="79.6 -148.6 72 72" style="overflow:visible;">
	<g>
		<rect x="79.6" y="-148.6" class="st0" width="72" height="72"/>
		<g>
			<line class="st1" x1="144.1" y1="-66.1" x2="162.1" y2="-84.1"/>
			<line class="st1" x1="144.1" y1="-60.1" x2="168.1" y2="-84.1"/>
			<line class="st1" x1="144.1" y1="-54.1" x2="174.1" y2="-84.1"/>
			<line class="st1" x1="144.1" y1="-48.1" x2="180.1" y2="-84.1"/>
			<line class="st1" x1="144.1" y1="-42.1" x2="186.1" y2="-84.1"/>
			<line class="st1" x1="144.1" y1="-36.1" x2="192.1" y2="-84.1"/>
			<line class="st1" x1="144.1" y1="-30.1" x2="198.1" y2="-84.1"/>
			<line class="st1" x1="144.1" y1="-24.1" x2="204.1" y2="-84.1"/>
			<line class="st1" x1="144.1" y1="-18.1" x2="210.1" y2="-84.1"/>
			<line class="st1" x1="144.1" y1="-12.1" x2="216.1" y2="-84.1"/>
			<line class="st1" x1="144.1" y1="-6.1" x2="222.1" y2="-84.1"/>
			<line class="st1" x1="144.1" y1="-0.1" x2="228.1" y2="-84.1"/>
			<line class="st1" x1="150.1" y1="-0.1" x2="228.1" y2="-78.1"/>
		</g>
		<g>
			<line class="st1" x1="72.1" y1="-66.1" x2="90.1" y2="-84.1"/>
			<line class="st1" x1="72.1" y1="-60.1" x2="96.1" y2="-84.1"/>
			<line class="st1" x1="72.1" y1="-54.1" x2="102.1" y2="-84.1"/>
			<line class="st1" x1="72.1" y1="-48.1" x2="108.1" y2="-84.1"/>
			<line class="st1" x1="72.1" y1="-42.1" x2="114.1" y2="-84.1"/>
			<line class="st1" x1="72.1" y1="-36.1" x2="120.1" y2="-84.1"/>
			<line class="st1" x1="72.1" y1="-30.1" x2="126.1" y2="-84.1"/>
			<line class="st1" x1="72.1" y1="-24.1" x2="132.1" y2="-84.1"/>
			<line class="st1" x1="72.1" y1="-18.1" x2="138.1" y2="-84.1"/>
			<line class="st1" x1="72.1" y1="-12.1" x2="144.1" y2="-84.1"/>
			<line class="st1" x1="72.1" y1="-6.1" x2="150.1" y2="-84.1"/>
			<line class="st1" x1="72.1" y1="-0.1" x2="156.1" y2="-84.1"/>
			<line class="st1" x1="78.1" y1="-0.1" x2="156.1" y2="-78.1"/>
		</g>
		<g>
			<line class="st1" x1="0.1" y1="-0.1" x2="84.1" y2="-84.1"/>
			<line class="st1" x1="6.1" y1="-0.1" x2="84.1" y2="-78.1"/>
		</g>
		<g>
			<line class="st1" x1="144.1" y1="-138.1" x2="162.1" y2="-156.1"/>
			<line class="st1" x1="144.1" y1="-132.1" x2="168.1" y2="-156.1"/>
			<line class="st1" x1="144.1" y1="-126.1" x2="174.1" y2="-156.1"/>
			<line class="st1" x1="144.1" y1="-120.1" x2="180.1" y2="-156.1"/>
			<line class="st1" x1="144.1" y1="-114.1" x2="186.1" y2="-156.1"/>
			<line class="st1" x1="144.1" y1="-108.1" x2="192.1" y2="-156.1"/>
			<line class="st1" x1="144.1" y1="-102.1" x2="198.1" y2="-156.1"/>
			<line class="st1" x1="144.1" y1="-96.1" x2="204.1" y2="-156.1"/>
			<line class="st1" x1="144.1" y1="-90.1" x2="210.1" y2="-156.1"/>
			<line class="st1" x1="144.1" y1="-84.1" x2="216.1" y2="-156.1"/>
			<line class="st1" x1="144.1" y1="-78.1" x2="222.1" y2="-156.1"/>
			<line class="st1" x1="144.1" y1="-72.1" x2="228.1" y2="-156.1"/>
			<line class="st1" x1="150.1" y1="-72.1" x2="228.1" y2="-150.1"/>
		</g>
		<g>
			<line class="st1" x1="72.1" y1="-138.1" x2="90.1" y2="-156.1"/>
			<line class="st1" x1="72.1" y1="-132.1" x2="96.1" y2="-156.1"/>
			<line class="st1" x1="72.1" y1="-126.1" x2="102.1" y2="-156.1"/>
			<line class="st1" x1="72.1" y1="-120.1" x2="108.1" y2="-156.1"/>
			<line class="st1" x1="72.1" y1="-114.1" x2="114.1" y2="-156.1"/>
			<line class="st1" x1="72.1" y1="-108.1" x2="120.1" y2="-156.1"/>
			<line class="st1" x1="72.1" y1="-102.1" x2="126.1" y2="-156.1"/>
			<line class="st1" x1="72.1" y1="-96.1" x2="132.1" y2="-156.1"/>
			<line class="st1" x1="72.1" y1="-90.1" x2="138.1" y2="-156.1"/>
			<line class="st1" x1="72.1" y1="-84.1" x2="144.1" y2="-156.1"/>
			<line class="st1" x1="72.1" y1="-78.1" x2="150.1" y2="-156.1"/>
			<line class="st1" x1="72.1" y1="-72.1" x2="156.1" y2="-156.1"/>
			<line class="st1" x1="78.1" y1="-72.1" x2="156.1" y2="-150.1"/>
			<line class="st1" x1="84.1" y1="-72.1" x2="156.1" y2="-144.1"/>
			<line class="st1" x1="90.1" y1="-72.1" x2="156.1" y2="-138.1"/>
			<line class="st1" x1="96.1" y1="-72.1" x2="156.1" y2="-132.1"/>
			<line class="st1" x1="102.1" y1="-72.1" x2="156.1" y2="-126.1"/>
			<line class="st1" x1="108.1" y1="-72.1" x2="156.1" y2="-120.1"/>
			<line class="st1" x1="114.1" y1="-72.1" x2="156.1" y2="-114.1"/>
			<line class="st1" x1="120.1" y1="-72.1" x2="156.1" y2="-108.1"/>
			<line class="st1" x1="126.1" y1="-72.1" x2="156.1" y2="-102.1"/>
			<line class="st1" x1="132.1" y1="-72.1" x2="156.1" y2="-96.1"/>
			<line class="st1" x1="138.1" y1="-72.1" x2="156.1" y2="-90.1"/>
			<line class="st1" x1="144.1" y1="-72.1" x2="156.1" y2="-84.1"/>
		</g>
		<g>
			<line class="st1" x1="0.1" y1="-72.1" x2="84.1" y2="-156.1"/>
			<line class="st1" x1="6.1" y1="-72.1" x2="84.1" y2="-150.1"/>
			<line class="st1" x1="12.1" y1="-72.1" x2="84.1" y2="-144.1"/>
			<line class="st1" x1="18.1" y1="-72.1" x2="84.1" y2="-138.1"/>
			<line class="st1" x1="24.1" y1="-72.1" x2="84.1" y2="-132.1"/>
			<line class="st1" x1="30.1" y1="-72.1" x2="84.1" y2="-126.1"/>
			<line class="st1" x1="36.1" y1="-72.1" x2="84.1" y2="-120.1"/>
			<line class="st1" x1="42.1" y1="-72.1" x2="84.1" y2="-114.1"/>
			<line class="st1" x1="48.1" y1="-72.1" x2="84.1" y2="-108.1"/>
			<line class="st1" x1="54.1" y1="-72.1" x2="84.1" y2="-102.1"/>
			<line class="st1" x1="60.1" y1="-72.1" x2="84.1" y2="-96.1"/>
			<line class="st1" x1="66.1" y1="-72.1" x2="84.1" y2="-90.1"/>
			<line class="st1" x1="72.1" y1="-72.1" x2="84.1" y2="-84.1"/>
		</g>
		<g>
			<line class="st1" x1="144.1" y1="-144.1" x2="228.1" y2="-228.1"/>
			<line class="st1" x1="150.1" y1="-144.1" x2="228.1" y2="-222.1"/>
		</g>
		<g>
			<line class="st1" x1="72.1" y1="-144.1" x2="156.1" y2="-228.1"/>
			<line class="st1" x1="78.1" y1="-144.1" x2="156.1" y2="-222.1"/>
			<line class="st1" x1="84.1" y1="-144.1" x2="156.1" y2="-216.1"/>
			<line class="st1" x1="90.1" y1="-144.1" x2="156.1" y2="-210.1"/>
			<line class="st1" x1="96.1" y1="-144.1" x2="156.1" y2="-204.1"/>
			<line class="st1" x1="102.1" y1="-144.1" x2="156.1" y2="-198.1"/>
			<line class="st1" x1="108.1" y1="-144.1" x2="156.1" y2="-192.1"/>
			<line class="st1" x1="114.1" y1="-144.1" x2="156.1" y2="-186.1"/>
			<line class="st1" x1="120.1" y1="-144.1" x2="156.1" y2="-180.1"/>
			<line class="st1" x1="126.1" y1="-144.1" x2="156.1" y2="-174.1"/>
			<line class="st1" x1="132.1" y1="-144.1" x2="156.1" y2="-168.1"/>
			<line class="st1" x1="138.1" y1="-144.1" x2="156.1" y2="-162.1"/>
			<line class="st1" x1="144.1" y1="-144.1" x2="156.1" y2="-156.1"/>
		</g>
		<g>
			<line class="st1" x1="0.1" y1="-144.1" x2="84.1" y2="-228.1"/>
			<line class="st1" x1="6.1" y1="-144.1" x2="84.1" y2="-222.1"/>
			<line class="st1" x1="12.1" y1="-144.1" x2="84.1" y2="-216.1"/>
			<line class="st1" x1="18.1" y1="-144.1" x2="84.1" y2="-210.1"/>
			<line class="st1" x1="24.1" y1="-144.1" x2="84.1" y2="-204.1"/>
			<line class="st1" x1="30.1" y1="-144.1" x2="84.1" y2="-198.1"/>
			<line class="st1" x1="36.1" y1="-144.1" x2="84.1" y2="-192.1"/>
			<line class="st1" x1="42.1" y1="-144.1" x2="84.1" y2="-186.1"/>
			<line class="st1" x1="48.1" y1="-144.1" x2="84.1" y2="-180.1"/>
			<line class="st1" x1="54.1" y1="-144.1" x2="84.1" y2="-174.1"/>
			<line class="st1" x1="60.1" y1="-144.1" x2="84.1" y2="-168.1"/>
			<line class="st1" x1="66.1" y1="-144.1" x2="84.1" y2="-162.1"/>
			<line class="st1" x1="72.1" y1="-144.1" x2="84.1" y2="-156.1"/>
		</g>
	</g>
</pattern>
<rect class="st2" width="1200" height="600"/>
</svg>
