<?xml version="1.0" encoding="utf-8"?>
<!-- Generator: Adobe Illustrator 22.1.0, SVG Export Plug-In . SVG Version: 6.00 Build 0)  -->
<svg version="1.1" id="Слой_1" xmlns="http://www.w3.org/2000/svg" xmlns:xlink="http://www.w3.org/1999/xlink" x="0px" y="0px"
	 viewBox="0 0 249.5 208" style="enable-background:new 0 0 249.5 208;" xml:space="preserve">
<style type="text/css">
	.st0{fill:#FFFFFF;}
</style>
<g>
	<path class="st0" d="M244.8,26.8c-1.5-5-8-14-12.5-16.5s-15-4-15-4h-33.5c0,0-16,2-20.5,5.5s-16.5,14.5-16.5,14.5l-7,10.5
		c0,0-6,21-9,28.5c-3,7.5-11,15-13,16.5s-5.5,3-5.5,3l-19.5,4.5c0,0-11.5,1.5-19,9.5s-15,14-17,22.5s-4.5,44-3.5,51
		s6.5,16,10.5,18.5s11,6,15,6.5s34.5,2,41.5,0s23-11,27.5-16.5s11.5-13.5,14-20.5s2-20,6.5-25.5s5.5-9.5,12-13s12.5-4,19-6
		s11.5-3,19-8s13.5-7.5,18-17s7.5-9.5,8.5-27.5S246.3,31.8,244.8,26.8z M101,168.3c-4,0-7.3-3.2-7.3-7.3c0-4,3.2-7.3,7.3-7.3
		s7.3,3.2,7.3,7.3C108.3,165.1,105,168.3,101,168.3z M125.5,168.3c-4,0-7.3-3.2-7.3-7.3c0-4,3.2-7.3,7.3-7.3c4,0,7.3,3.2,7.3,7.3
		C132.8,165.1,129.5,168.3,125.5,168.3z M125.5,144.3c-4,0-7.3-3.2-7.3-7.3c0-4,3.2-7.3,7.3-7.3c4,0,7.3,3.2,7.3,7.3
		C132.8,141.1,129.5,144.3,125.5,144.3z M185.5,84.8c-4,0-7.3-3.2-7.3-7.3c0-4,3.2-7.3,7.3-7.3s7.3,3.2,7.3,7.3
		C192.8,81.6,189.5,84.8,185.5,84.8z M209.9,84.8c-4,0-7.3-3.2-7.3-7.3c0-4,3.2-7.3,7.3-7.3c4,0,7.3,3.2,7.3,7.3
		C217.2,81.6,213.9,84.8,209.9,84.8z M209.9,60.3c-4,0-7.3-3.2-7.3-7.3c0-4,3.2-7.3,7.3-7.3c4,0,7.3,3.2,7.3,7.3
		C217.2,57.1,213.9,60.3,209.9,60.3z"/>
	<path class="st0" d="M41.3,178.3c-3.6-15.1,0-45,0-45l2.5-10c0,0,2.5-14,9.3-21s9.7-13.5,18.2-17.5s22.5-9.5,22.5-9.5l14.5-5
		l6.5-3.5l3.5-6.5l7.3-21.5c0,0-7.8-22-14.3-26.5s-14.5-6-14.5-6h-9.5l-30,15.5c0,0-11.5,10-13.5,15.5s-6,7.5-4.5,15.8
		s3,26.8,3,26.8s1.5,5,0,9.5s-8,13-8,13l-13,9.5c0,0-7.5,6.5-10,11.5s-7,12.5-7,21s9,31.5,12.5,38s12,11.5,15.5,13s12.5,0,12.5,0h6
		C50.8,195.3,44.2,190.7,41.3,178.3z"/>
</g>
</svg>
