<?xml version="1.0" encoding="utf-8"?>
<!-- Generator: Adobe Illustrator 22.1.0, SVG Export Plug-In . SVG Version: 6.00 Build 0)  -->
<svg version="1.1" id="Слой_1" xmlns="http://www.w3.org/2000/svg" xmlns:xlink="http://www.w3.org/1999/xlink" x="0px" y="0px"
	 viewBox="0 0 256 512" style="enable-background:new 0 0 256 512;" xml:space="preserve">
<style type="text/css">
	.st0{fill:#FFFFFF;}
</style>
<path class="st0" d="M88,0h80c13.3,0,24,10.7,24,24v40H64V24C64,10.7,74.7,0,88,0z M0,151.7c0-15.6,9-29.8,23.2-36.5l24.4-11.4
	c11-5.1,23-7.8,35.1-7.8h90.6c12.1,0,24.1,2.7,35.1,7.8l24.4,11.4C247,121.8,256,136,256,151.7c0,14.4-7.5,27-18.9,34.1
	c11.5,8.8,18.9,22.6,18.9,38.2c0,16.7-8.5,31.4-21.5,40c12.9,8.6,21.5,23.3,21.5,40s-8.5,31.4-21.5,40c12.9,8.6,21.5,23.3,21.5,40
	s-8.5,31.4-21.5,40c12.9,8.6,21.5,23.3,21.5,40c0,26.5-21.5,48-48,48H48c-26.5,0-48-21.5-48-48c0-16.7,8.5-31.4,21.5-40
	C8.5,415.4,0,400.7,0,384s8.5-31.4,21.5-40C8.5,335.4,0,320.7,0,304s8.5-31.4,21.5-40C8.5,255.4,0,240.7,0,224
	c0-15.6,7.4-29.4,18.9-38.2C7.5,178.7,0,166.1,0,151.7z M64,240c0,8.8,7.2,16,16,16h96c8.8,0,16-7.2,16-16s-7.2-16-16-16H80
	C71.2,224,64,231.2,64,240z M80,352c-8.8,0-16,7.2-16,16s7.2,16,16,16h96c8.8,0,16-7.2,16-16s-7.2-16-16-16H80z"/>
</svg>
